# xmcd
#
# Track frame offsets:
# 150
# 12729
# 32094
# 49044
# 65813
# 84052
# 100316
# 117965
# 133755
# 150350
# 166494
# 182609
#
# Disc length: 2615 seconds
#
#
# Revision: 0
# Processed by: cddbd v1.5.2PL0 Copyright (c) Steve Scherf et al.
# Submitted via: FreeRIP 2.945 
#
DISCID=980a350c
DTITLE=HOWARD CARPENDALE - DAS ALLES BIN ICH
DYEAR=2011
DGENRE=
TTITLE0=DAS ALLES BIN ICH
TTITLE1=WIR FINDEN EINEN WEG
TTITLE2=WAS MACHST DU NOCH HEUTE NACHT
TTITLE3=ALLES IN ALLEM
TTITLE4=ICH REDE VIEL ZU VIEL
TTITLE5=WORAN DENKST DU ?
TTITLE6=JETZT BIN ICH 64
TTITLE7=DOCH DU BIST NOCH DA
TTITLE8=DU BIST VIEL MEHR
TTITLE9=ALLES HAT ZEIT
TTITLE10=WER
TTITLE11=FRÜHSTÜCK FÜR ZWEI
EXTD=
EXTT0=
EXTT1=
EXTT2=
EXTT3=
EXTT4=
EXTT5=
EXTT6=
EXTT7=
EXTT8=
EXTT9=
EXTT10=
EXTT11=
PLAYORDER=
